<svg width="260" height="40" viewBox="0 0 260 40" fill="none" xmlns="http://www.w3.org/2000/svg">
<path fill-rule="evenodd" clip-rule="evenodd" d="M13.7282 0.325417C11.3119 0.975103 10.0651 1.84281 6.72729 5.19719C4.26961 7.6673 3.35046 8.75716 2.59743 10.0945C0.602809 13.6366 -0.162646 16.8715 0.0283356 20.9523C0.163941 23.8471 0.578172 25.5775 1.73322 28.0707C2.91072 30.6123 4.10566 32.1823 7.08789 35.1056C9.81897 37.7828 10.6799 38.4175 12.6137 39.1792C16.1414 40.5684 20.4498 40.1171 23.5581 38.0327L24.5827 37.3455L18.9174 31.6895C15.8015 28.5787 12.951 25.5674 12.583 24.9976C11.1083 22.7149 10.6971 19.6571 11.5317 17.18C12.1814 15.2516 12.8585 14.2954 15.3151 11.8382C18.2232 8.92918 19.0436 8.7552 21.2659 10.5761C23.4648 12.378 26.3358 13.0329 28.8722 12.3112C30.2093 11.9308 32.234 10.7315 32.2346 10.3195C32.2349 10.1904 30.3957 8.27491 28.1473 6.06293C23.7977 1.7835 22.6738 0.978158 20.1261 0.314519C18.5285 -0.101672 15.2955 -0.0962242 13.7282 0.325417ZM33.1649 0.316918C31.8677 0.666178 30.2003 1.46673 29.3987 2.12492L28.8559 2.57076L34.553 8.30674C37.6866 11.4616 40.5033 14.4519 40.8129 14.9521C42.6442 17.9121 42.7208 21.6251 41.0122 24.6165C40.2607 25.9322 36.4537 29.8227 35.5321 30.2168C34.4785 30.6677 33.3533 30.4133 32.3269 29.4919C31.8566 29.0699 30.8343 28.4134 30.0549 28.0332C28.7826 27.4123 28.4368 27.3417 26.6711 27.3417C24.8958 27.3417 24.5653 27.4101 23.276 28.0448C20.5571 29.3834 20.4777 29.0925 24.7255 33.3711C26.7575 35.4176 28.9941 37.4704 29.6961 37.9326C33.8388 40.6607 38.8433 40.6905 43.0268 38.0122C44.2874 37.2051 48.6516 32.8655 49.8124 31.2651C50.8776 29.7965 52.3747 26.5937 52.8694 24.7255C53.1772 23.5635 53.2736 22.4191 53.2736 19.9291C53.2736 16.1117 52.976 14.6896 51.5399 11.6446C50.3382 9.09639 49.201 7.62653 46.0355 4.53006C43.3395 1.89317 42.0427 1.03898 39.6624 0.332177C38.193 -0.104071 34.7577 -0.112136 33.1649 0.316918Z" fill="url(#paint0_linear_767_2475)"/>
<path d="M25.4192 13.5792C24.6917 13.4366 23.9402 13.4748 23.2308 13.6905C22.5215 13.9062 21.876 14.2929 21.3511 14.8165C20.7911 15.3739 20.3878 16.0689 20.1815 16.8316C19.9752 17.5943 19.9733 18.3978 20.176 19.1615C20.3788 18.9864 20.6229 18.8658 20.8852 18.8109C21.1475 18.7561 21.4194 18.7688 21.6755 18.8479C21.9315 18.9271 22.1632 19.07 22.3488 19.2633C22.5344 19.4566 22.6679 19.6939 22.7365 19.9529C22.9506 19.922 23.1687 19.9354 23.3774 19.9923C23.586 20.0492 23.7807 20.1484 23.9494 20.2838C24.1181 20.4191 24.2571 20.5877 24.3579 20.7791C24.4587 20.9705 24.519 21.1805 24.5352 21.3962C24.9123 21.4229 25.2672 21.5846 25.5348 21.8517C25.8025 22.1187 25.965 22.4733 25.9926 22.8503C26.2936 22.8715 26.5822 22.9788 26.8239 23.1594C27.0656 23.34 27.2503 23.5863 27.3558 23.869C27.4614 24.1516 27.4835 24.4587 27.4194 24.7536C27.3553 25.0484 27.2078 25.3186 26.9944 25.5319L26.7382 25.787L27.4915 26.4988C27.592 26.5941 27.7258 26.6462 27.8643 26.6442C28.0028 26.6422 28.135 26.5861 28.2327 26.4879C28.3231 26.3971 28.3778 26.2768 28.387 26.1489C28.3962 26.0211 28.3593 25.8942 28.2829 25.7914L28.2414 25.7499C28.223 25.7316 28.2059 25.7119 28.1902 25.6911L28.0801 25.5799C27.9778 25.4773 27.9203 25.3383 27.9203 25.1935C27.9203 25.0486 27.9778 24.9096 28.0801 24.807C28.1305 24.7565 28.1904 24.7164 28.2564 24.6891C28.3223 24.6617 28.393 24.6476 28.4644 24.6476C28.5357 24.6476 28.6064 24.6617 28.6724 24.6891C28.7383 24.7164 28.7982 24.7565 28.8486 24.807L29.0012 24.9596C29.0339 24.9923 29.0644 25.025 29.0928 25.0599L29.1745 25.1428C29.2224 25.191 29.2793 25.2292 29.3419 25.2553C29.4046 25.2814 29.4718 25.2948 29.5397 25.2948C29.6076 25.2948 29.6748 25.2814 29.7375 25.2553C29.8002 25.2292 29.8571 25.191 29.9049 25.1428C30.0019 25.0453 30.0563 24.9134 30.0563 24.776C30.0563 24.6385 30.0019 24.5066 29.9049 24.4091L29.7414 24.2456C29.6891 24.1933 29.648 24.1308 29.6206 24.062C29.5933 23.9932 29.5802 23.9196 29.5822 23.8456C29.582 23.7379 29.6137 23.6326 29.6733 23.5429C29.7329 23.4532 29.8178 23.3832 29.9171 23.3417C30.0165 23.3002 30.1259 23.289 30.2316 23.3096C30.3373 23.3302 30.4345 23.3817 30.511 23.4575L30.6342 23.5818C30.6872 23.6351 30.7503 23.6775 30.8198 23.7064C30.8893 23.7353 30.9638 23.7501 31.0391 23.7501C31.1144 23.7501 31.1889 23.7353 31.2584 23.7064C31.3279 23.6775 31.391 23.6351 31.4441 23.5818C31.5512 23.4738 31.6113 23.3278 31.6113 23.1757C31.6113 23.0236 31.5512 22.8777 31.4441 22.7697L31.4168 22.7413C31.3827 22.7116 31.3496 22.6807 31.3176 22.6487L30.4728 21.8006C30.3708 21.6981 30.3136 21.5593 30.3136 21.4147C30.3136 21.2701 30.3708 21.1314 30.4728 21.0288C30.5233 20.9781 30.5832 20.9379 30.6493 20.9105C30.7153 20.883 30.7861 20.8689 30.8576 20.8689C30.9291 20.8689 30.9999 20.883 31.066 20.9105C31.132 20.9379 31.192 20.9781 31.2424 21.0288L32.036 21.8246C32.0548 21.8394 32.0727 21.8554 32.0894 21.8725L32.1548 21.9379C32.3237 22.0755 32.5377 22.1455 32.7552 22.1342C32.9727 22.1229 33.1783 22.0312 33.3321 21.8769C33.4974 21.7108 33.5902 21.486 33.5902 21.2517C33.5902 21.0174 33.4974 20.7927 33.3321 20.6266L32.5276 19.8188C32.5167 19.8094 32.5062 19.7996 32.496 19.7894L29.2345 16.4734H28.3995L26.5333 17.8927C25.6307 18.5794 24.3422 18.405 23.6544 17.5024C23.4907 17.288 23.371 17.0434 23.302 16.7827C23.2329 16.5219 23.216 16.2501 23.2522 15.9828C23.2883 15.7155 23.3768 15.458 23.5126 15.2249C23.6484 14.9919 23.8288 14.7879 24.0435 14.6246L25.4192 13.5781V13.5792ZM29.4634 15.3833C29.5357 15.3835 29.6072 15.398 29.6739 15.4261C29.7405 15.4541 29.8009 15.4952 29.8515 15.5468L32.7903 18.5336C32.9997 18.1196 33.1231 17.6674 33.153 17.2044C33.183 16.7414 33.1189 16.2771 32.9646 15.8395C32.8102 15.4019 32.5689 15.0001 32.2552 14.6583C31.9414 14.3165 31.5617 14.0418 31.1389 13.8507C30.775 13.6418 30.3625 13.5328 29.943 13.5345H27.2724C27.2555 13.5506 27.2377 13.5655 27.2189 13.5792L24.7041 15.4923C24.6033 15.5688 24.5186 15.6644 24.4548 15.7736C24.391 15.8829 24.3494 16.0037 24.3324 16.1291C24.3154 16.2544 24.3233 16.3819 24.3557 16.5042C24.388 16.6266 24.4442 16.7413 24.521 16.8418C24.6762 17.0454 24.9058 17.179 25.1595 17.2134C25.4131 17.2477 25.6701 17.1799 25.8738 17.025L27.8861 15.4945C27.9807 15.4225 28.0963 15.3835 28.2153 15.3833H29.4634ZM24.7641 23.3071L24.0479 24.0211C23.9568 24.112 23.8333 24.1631 23.7045 24.1631C23.5758 24.1631 23.4523 24.112 23.3612 24.0211C23.2723 23.9327 23.2212 23.8133 23.2188 23.688C23.2163 23.5627 23.2627 23.4413 23.3481 23.3496L23.3622 23.3354L24.0773 22.6214L24.0904 22.6094C24.1826 22.5243 24.3042 22.478 24.4297 22.4802C24.5552 22.4825 24.675 22.533 24.7641 22.6214C24.8093 22.6663 24.8453 22.7197 24.8698 22.7786C24.8943 22.8374 24.9069 22.9005 24.9069 22.9643C24.9069 23.028 24.8943 23.0911 24.8698 23.1499C24.8453 23.2088 24.8093 23.2622 24.7641 23.3071ZM24.8197 25.4752C24.9108 25.5662 25.0343 25.6172 25.1631 25.6172C25.2918 25.6172 25.4153 25.5662 25.5064 25.4752L26.2226 24.7612C26.2736 24.7105 26.3127 24.649 26.3369 24.5813C26.3611 24.5136 26.3699 24.4413 26.3625 24.3697C26.3552 24.2981 26.332 24.2291 26.2946 24.1677C26.2572 24.1062 26.2065 24.0539 26.1463 24.0145C26.0529 23.9532 25.9412 23.9258 25.83 23.9371C25.7189 23.9485 25.615 23.9977 25.5359 24.0767L24.8197 24.7907C24.7746 24.8355 24.7388 24.8889 24.7144 24.9476C24.69 25.0064 24.6774 25.0693 24.6774 25.133C24.6774 25.1966 24.69 25.2596 24.7144 25.3183C24.7388 25.377 24.7746 25.4304 24.8197 25.4752ZM21.5658 20.6822L20.8507 21.3962C20.7596 21.4871 20.6361 21.5382 20.5073 21.5382C20.3786 21.5382 20.2551 21.4871 20.164 21.3962C20.0751 21.3078 20.024 21.1884 20.0216 21.0631C20.0191 20.9378 20.0655 20.8164 20.1509 20.7247L20.1651 20.7105L20.8801 19.9965L20.8932 19.9845C20.9854 19.8996 21.1068 19.8535 21.2321 19.856C21.3575 19.8584 21.477 19.9091 21.5658 19.9976C21.6109 20.0425 21.6467 20.0958 21.6711 20.1546C21.6955 20.2133 21.7081 20.2763 21.7081 20.3399C21.7081 20.4035 21.6955 20.4665 21.6711 20.5252C21.6467 20.584 21.6109 20.6373 21.5658 20.6822ZM23.1758 21.8954L22.4608 22.6083C22.3696 22.6993 22.2461 22.7503 22.1174 22.7503C21.9886 22.7503 21.8652 22.6993 21.774 22.6083C21.6854 22.52 21.6346 22.4008 21.6321 22.2758C21.6297 22.1507 21.6759 22.0296 21.7609 21.9379L21.7751 21.9238L22.4902 21.2098L22.5033 21.1967C22.5954 21.1118 22.7169 21.0657 22.8422 21.0681C22.9675 21.0706 23.087 21.1213 23.1758 21.2098C23.2211 21.2547 23.257 21.3081 23.2815 21.3669C23.306 21.4258 23.3187 21.4889 23.3187 21.5526C23.3187 21.6163 23.306 21.6795 23.2815 21.7383C23.257 21.7971 23.2211 21.8505 23.1758 21.8954Z" fill="url(#paint1_linear_767_2475)"/>
<path d="M113.106 29.6622C110.307 32.4611 106.511 34.0334 102.553 34.0334C98.5949 34.0334 94.7988 32.4611 92 29.6622L94.3402 27.322C96.5184 29.5002 99.4726 30.7239 102.553 30.7239C105.633 30.7239 108.588 29.5002 110.766 27.322L113.106 29.6622Z" fill="url(#paint2_linear_767_2475)"/>
<path d="M73.3054 24.5026C76.2814 24.5026 78.4414 22.7746 79.1134 20.1346H81.0814C80.3134 23.8066 77.3134 26.2786 73.3054 26.2786C68.6014 26.2786 64.8094 22.6306 64.8094 17.8066C64.8094 12.9826 68.6014 9.35855 73.3054 9.35855C77.3134 9.35855 80.3134 11.8066 81.0814 15.4786H79.1134C78.4414 12.8146 76.2814 11.1346 73.3054 11.1346C69.6094 11.1346 66.7294 13.9906 66.7294 17.8066C66.7294 21.6226 69.6094 24.5026 73.3054 24.5026ZM89.5075 14.5426C92.8915 14.5426 95.4115 17.0386 95.4115 20.3986C95.4115 23.7586 92.8915 26.2546 89.5075 26.2546C86.0995 26.2546 83.5795 23.7586 83.5795 20.3986C83.5795 17.0386 86.0995 14.5426 89.5075 14.5426ZM89.5075 24.5746C91.8355 24.5746 93.5635 22.7986 93.5635 20.3986C93.5635 17.9986 91.8355 16.2226 89.5075 16.2226C87.1555 16.2226 85.4035 17.9986 85.4035 20.3986C85.4035 22.7986 87.1555 24.5746 89.5075 24.5746ZM98.6399 8.92655H100.464V25.9666H98.6399V8.92655ZM104.382 8.92655H106.206V25.9666H104.382V8.92655ZM119.126 14.8306H120.95V25.9666H119.126V24.8146C118.142 25.7266 116.798 26.2546 115.214 26.2546C112.022 26.2546 109.478 23.6626 109.478 20.3986C109.478 17.1586 112.022 14.5426 115.214 14.5426C116.798 14.5426 118.142 15.0706 119.126 15.9826V14.8306ZM115.454 24.5746C116.918 24.5746 118.214 24.0226 119.126 22.6786V18.1186C118.214 16.7746 116.918 16.2226 115.454 16.2226C113.102 16.2226 111.302 18.0946 111.302 20.3986C111.302 22.7026 113.102 24.5746 115.454 24.5746ZM130.626 14.5426C133.818 14.5426 136.362 17.1346 136.362 20.3986C136.362 23.6386 133.818 26.2546 130.626 26.2546C129.042 26.2546 127.698 25.7266 126.714 24.8146V25.9666H124.89V8.92655H126.714V15.9826C127.698 15.0706 129.042 14.5426 130.626 14.5426ZM130.386 24.5746C132.738 24.5746 134.538 22.7026 134.538 20.3986C134.538 18.0946 132.738 16.2226 130.386 16.2226C128.922 16.2226 127.626 16.7746 126.714 18.1186V22.6786C127.626 24.0226 128.922 24.5746 130.386 24.5746ZM139.609 8.92655H141.433V25.9666H139.609V8.92655ZM154.814 14.8306H156.758L149.222 31.5106H147.278L149.606 26.3506L143.87 14.8306H145.838L150.494 24.4066L154.814 14.8306ZM177.279 9.64655H179.175V25.9666H177.591L167.151 13.1026V25.9666H165.255V9.64655H166.791L177.279 22.6786V9.64655ZM188.502 14.5426C192.078 14.5426 194.31 17.3026 193.95 20.9506H184.638C184.854 23.0146 186.27 24.6226 188.598 24.6226C190.014 24.6226 191.094 24.1186 191.574 23.1826H193.614C192.918 25.1026 190.998 26.2546 188.598 26.2546C185.166 26.2546 182.79 23.6866 182.79 20.3986C182.79 17.1106 185.142 14.5426 188.502 14.5426ZM188.502 16.1266C186.294 16.1266 184.926 17.6866 184.662 19.6546H192.126C192.03 17.4466 190.614 16.1266 188.502 16.1266ZM204.44 24.1666L204.704 25.8466C203.792 26.1586 203.024 26.2546 202.352 26.2546C199.616 26.2546 198.296 24.7426 198.296 21.8386V16.3906H195.392V14.8306H198.296V10.7266H200.12V14.8306H204.32V16.3906H200.12V21.8386C200.12 23.7586 200.936 24.5506 202.52 24.5506C203.144 24.5506 203.84 24.3826 204.44 24.1666ZM221.102 14.8306H223.07L219.014 25.9666H217.358L214.478 17.4466L211.598 25.9666H209.942L205.886 14.8306H207.854L210.782 23.2066L213.686 14.8306H215.27L218.174 23.1826L221.102 14.8306ZM230.461 14.5426C233.845 14.5426 236.365 17.0386 236.365 20.3986C236.365 23.7586 233.845 26.2546 230.461 26.2546C227.053 26.2546 224.533 23.7586 224.533 20.3986C224.533 17.0386 227.053 14.5426 230.461 14.5426ZM230.461 24.5746C232.789 24.5746 234.517 22.7986 234.517 20.3986C234.517 17.9986 232.789 16.2226 230.461 16.2226C228.109 16.2226 226.357 17.9986 226.357 20.3986C226.357 22.7986 228.109 24.5746 230.461 24.5746ZM241.3 16.6546C242.332 15.3346 243.82 14.5666 245.596 14.5666V16.2946C243.772 16.3426 242.284 17.1826 241.3 18.7186V25.9666H239.476V14.8306H241.3V16.6546ZM256.906 25.9666L252.346 20.7586L250.042 22.9906V25.9666H248.218V8.92655H250.042V20.5906L256.066 14.8306H258.418L253.642 19.4866L259.282 25.9666H256.906Z" fill="#1E1E1E"/>
<defs>
<linearGradient id="paint0_linear_767_2475" x1="3.96919e-07" y1="20" x2="53" y2="20" gradientUnits="userSpaceOnUse">
<stop stop-color="#F33982"/>
<stop offset="1" stop-color="#4C44FC"/>
</linearGradient>
<linearGradient id="paint1_linear_767_2475" x1="20" y1="20" x2="34" y2="20" gradientUnits="userSpaceOnUse">
<stop stop-color="#F63880"/>
<stop offset="1" stop-color="#5044F9"/>
</linearGradient>
<linearGradient id="paint2_linear_767_2475" x1="92" y1="29.5" x2="113" y2="30" gradientUnits="userSpaceOnUse">
<stop stop-color="#F33983"/>
<stop offset="1" stop-color="#4F44FA"/>
</linearGradient>
</defs>
</svg>
